<svg width="32" height="32" viewBox="0 0 32 32" fill="none" xmlns="http://www.w3.org/2000/svg">
<path d="M16.0087 18.0939L6.55331 27.5616C6.24046 27.8721 5.89264 28.0177 5.50984 27.9983C5.12898 27.9789 4.78115 27.8139 4.46636 27.5034C4.15545 27.1948 4 26.8425 4 26.4465C4 26.0506 4.15545 25.6983 4.46636 25.3897L13.8897 15.9831L4.46636 6.60857C4.15545 6.29415 4 5.93702 4 5.53719C4 5.13543 4.15545 4.7783 4.46636 4.46581C4.77726 4.15527 5.13092 4 5.52733 4C5.92373 4 6.27642 4.15527 6.58538 4.46581L16.0087 13.9335L25.3913 4.46581C25.7022 4.15527 26.05 4 26.4348 4C26.8195 4 27.1674 4.15527 27.4783 4.46581C27.7989 4.788 27.9592 5.14416 27.9592 5.53428C27.9592 5.9244 27.7989 6.27377 27.4783 6.58237L18.0549 15.9773L27.5336 25.4217C27.8445 25.7342 28 26.0816 28 26.464C28 26.8464 27.8445 27.1938 27.5336 27.5063C27.2111 27.8265 26.8545 27.9866 26.4639 27.9866C26.0734 27.9866 25.7236 27.8265 25.4146 27.5063L16.0087 18.0939Z" fill="#bcbcbc"/>
</svg>
