<svg width="32" height="32" viewBox="0 0 32 32" fill="none" xmlns="http://www.w3.org/2000/svg">
<path d="M21.3333 26.6667C20.2222 26.6667 19.2778 26.2778 18.5 25.5C17.7222 24.7222 17.3333 23.7778 17.3333 22.6667C17.3333 21.5556 17.7222 20.6111 18.5 19.8333C19.2778 19.0556 20.2222 18.6667 21.3333 18.6667C21.5778 18.6667 21.8111 18.6836 22.0333 18.7173C22.2556 18.7511 22.4667 18.8231 22.6667 18.9333V9.33333C22.6667 8.95556 22.7947 8.63911 23.0507 8.384C23.3067 8.12889 23.6231 8.00089 24 8H28C28.3778 8 28.6947 8.128 28.9507 8.384C29.2067 8.64 29.3342 8.95644 29.3333 9.33333C29.3333 9.71111 29.2053 10.028 28.9493 10.284C28.6933 10.54 28.3769 10.6676 28 10.6667H25.3333V22.6667C25.3333 23.7778 24.9444 24.7222 24.1667 25.5C23.3889 26.2778 22.4444 26.6667 21.3333 26.6667ZM5.33333 21.3333C4.95556 21.3333 4.63911 21.2053 4.384 20.9493C4.12889 20.6933 4.00089 20.3769 4 20C4 19.6222 4.128 19.3058 4.384 19.0507C4.64 18.7956 4.95644 18.6676 5.33333 18.6667H13.3333C13.7111 18.6667 14.028 18.7947 14.284 19.0507C14.54 19.3067 14.6676 19.6231 14.6667 20C14.6667 20.3778 14.5387 20.6947 14.2827 20.9507C14.0267 21.2067 13.7102 21.3342 13.3333 21.3333H5.33333ZM5.33333 16C4.95556 16 4.63911 15.872 4.384 15.616C4.12889 15.36 4.00089 15.0436 4 14.6667C4 14.2889 4.128 13.9724 4.384 13.7173C4.64 13.4622 4.95644 13.3342 5.33333 13.3333H18.6667C19.0444 13.3333 19.3613 13.4613 19.6173 13.7173C19.8733 13.9733 20.0009 14.2898 20 14.6667C20 15.0444 19.872 15.3613 19.616 15.6173C19.36 15.8733 19.0436 16.0009 18.6667 16H5.33333ZM5.33333 10.6667C4.95556 10.6667 4.63911 10.5387 4.384 10.2827C4.12889 10.0267 4.00089 9.71022 4 9.33333C4 8.95556 4.128 8.63911 4.384 8.384C4.64 8.12889 4.95644 8.00089 5.33333 8H18.6667C19.0444 8 19.3613 8.128 19.6173 8.384C19.8733 8.64 20.0009 8.95644 20 9.33333C20 9.71111 19.872 10.028 19.616 10.284C19.36 10.54 19.0436 10.6676 18.6667 10.6667H5.33333Z" fill="white"/>
</svg>
