<svg width="32" height="32" viewBox="0 0 32 32" fill="none" xmlns="http://www.w3.org/2000/svg">
<path d="M25.9144 23.9707V7.02927C25.9144 6.73696 26.0139 6.492 26.2129 6.29438C26.412 6.09676 26.6604 5.99864 26.9582 6.00001C27.2547 6.00001 27.5024 6.09814 27.7015 6.29438C27.9005 6.49062 28 6.73559 28 7.02927V23.9707C28 24.263 27.8998 24.508 27.6994 24.7056C27.499 24.9032 27.2512 25.0014 26.9562 25C26.6597 25 26.412 24.9019 26.2129 24.7056C26.0125 24.508 25.9123 24.263 25.9123 23.9707M6 21.8916V9.10835C6 8.60882 6.16841 8.20673 6.50522 7.90207C6.84203 7.59741 7.23521 7.44508 7.68476 7.44508C7.85873 7.44508 8.02366 7.46224 8.17954 7.49655C8.33542 7.53085 8.48643 7.6029 8.63257 7.71269L18.3653 14.1187C18.6242 14.2971 18.8121 14.4996 18.929 14.726C19.0459 14.9511 19.1044 15.2091 19.1044 15.5C19.1044 15.7909 19.0459 16.0489 18.929 16.274C18.8121 16.4991 18.6242 16.7015 18.3653 16.8813L8.63257 23.2873C8.48643 23.3971 8.33542 23.4691 8.17954 23.5035C8.02366 23.5378 7.85873 23.5549 7.68476 23.5549C7.23521 23.5549 6.84203 23.4026 6.50522 23.0979C6.16841 22.7933 6 22.3919 6 21.8937" fill="white"/>
</svg>
