<svg width="32" height="32" viewBox="0 0 32 32" fill="none" xmlns="http://www.w3.org/2000/svg">
<path d="M5.33301 25.3334V13.3334C5.33301 12.9112 5.42767 12.5112 5.61701 12.1334C5.80634 11.7556 6.06723 11.4445 6.39967 11.2001L14.3997 5.20008C14.8663 4.84453 15.3997 4.66675 15.9997 4.66675C16.5997 4.66675 17.133 4.84453 17.5997 5.20008L25.5997 11.2001C25.933 11.4445 26.1943 11.7556 26.3837 12.1334C26.573 12.5112 26.6672 12.9112 26.6663 13.3334V25.3334C26.6663 26.0667 26.405 26.6947 25.8823 27.2174C25.3597 27.7401 24.7321 28.001 23.9997 28.0001H19.9997C19.6219 28.0001 19.3055 27.8721 19.0503 27.6161C18.7952 27.3601 18.6672 27.0436 18.6663 26.6667V20.0001C18.6663 19.6223 18.5383 19.3059 18.2823 19.0507C18.0263 18.7956 17.7099 18.6676 17.333 18.6667H14.6663C14.2886 18.6667 13.9721 18.7947 13.717 19.0507C13.4619 19.3067 13.3339 19.6232 13.333 20.0001V26.6667C13.333 27.0445 13.205 27.3614 12.949 27.6174C12.693 27.8734 12.3766 28.001 11.9997 28.0001H7.99967C7.26634 28.0001 6.63879 27.7392 6.11701 27.2174C5.59523 26.6956 5.3339 26.0676 5.33301 25.3334Z" fill="white"/>
</svg>
