<svg width="32" height="32" viewBox="0 0 32 32" fill="none" xmlns="http://www.w3.org/2000/svg">
<path d="M15.9993 27.1C15.6882 27.1 15.3718 27.0444 15.05 26.9333C14.7282 26.8222 14.4447 26.6444 14.1993 26.4L11.8993 24.3C9.54379 22.1444 7.41579 20.0058 5.51535 17.884C3.61491 15.7622 2.66513 13.4231 2.66602 10.8667C2.66602 8.77777 3.36602 7.03332 4.76602 5.63332C6.16602 4.23332 7.91046 3.53333 9.99935 3.53333C11.1771 3.53333 12.2882 3.7831 13.3327 4.28266C14.3771 4.78221 15.266 5.46577 15.9993 6.33332C16.7327 5.46666 17.6216 4.78355 18.666 4.28399C19.7105 3.78444 20.8216 3.53421 21.9993 3.53333C24.0882 3.53333 25.8327 4.23332 27.2327 5.63332C28.6327 7.03332 29.3327 8.77777 29.3327 10.8667C29.3327 13.4222 28.3882 15.7667 26.4993 17.9C24.6105 20.0333 22.466 22.1778 20.066 24.3333L17.7993 26.4C17.5549 26.6444 17.2718 26.8222 16.95 26.9333C16.6282 27.0444 16.3113 27.1 15.9993 27.1Z" fill="#ff8515"/>
</svg>
