<svg width="32" height="32" viewBox="0 0 32 32" fill="none" xmlns="http://www.w3.org/2000/svg">
<path d="M8.0856 7.02926L8.08559 23.9707C8.08559 24.263 7.98608 24.508 7.78706 24.7056C7.58803 24.9032 7.33959 25.0014 7.04175 25C6.7453 25 6.49756 24.9019 6.29854 24.7056C6.09951 24.5094 6 24.2644 6 23.9707L6 7.02926C6 6.73696 6.10021 6.49199 6.30063 6.29438C6.50104 6.09676 6.74878 5.99864 7.04384 6.00001C7.3403 6.00001 7.58803 6.09813 7.78706 6.29438C7.98747 6.49199 8.08769 6.73696 8.08769 7.02926M28 9.10835L28 21.8916C28 22.3912 27.8316 22.7933 27.4948 23.0979C27.158 23.4026 26.7648 23.5549 26.3152 23.5549C26.1413 23.5549 25.9763 23.5378 25.8205 23.5035C25.6646 23.4691 25.5136 23.3971 25.3674 23.2873L15.6347 16.8813C15.3758 16.7028 15.1879 16.5004 15.071 16.274C14.9541 16.0489 14.8956 15.7909 14.8956 15.5C14.8956 15.2091 14.9541 14.9511 15.071 14.726C15.1879 14.5009 15.3758 14.2985 15.6347 14.1187L25.3674 7.71269C25.5136 7.6029 25.6646 7.53085 25.8205 7.49655C25.9763 7.46224 26.1413 7.44508 26.3152 7.44508C26.7648 7.44508 27.158 7.59741 27.4948 7.90207C27.8316 8.20673 28 8.60814 28 9.10629" fill="white"/>
</svg>
