<svg width="32" height="32" viewBox="0 0 32 32" fill="none" xmlns="http://www.w3.org/2000/svg">
<path d="M24.7519 24.8841L20.9667 28.7263C20.8094 28.886 20.6161 28.9715 20.3869 28.9829C20.1577 28.9943 19.9532 28.9088 19.7734 28.7263C19.5937 28.5438 19.5038 28.342 19.5038 28.1207C19.5038 27.8995 19.5937 27.6976 19.7734 27.5151L23.5587 23.6729L19.7734 19.8307C19.6161 19.671 19.5319 19.4749 19.5206 19.2422C19.5094 19.0096 19.5937 18.802 19.7734 18.6195C19.9532 18.4371 20.1521 18.3458 20.3701 18.3458C20.588 18.3458 20.7869 18.4371 20.9667 18.6195L24.7519 22.4617L28.5371 18.6195C28.6944 18.4599 28.8882 18.3743 29.1186 18.3629C29.3467 18.3515 29.5506 18.4371 29.7303 18.6195C29.9101 18.802 30 19.0039 30 19.2251C30 19.4464 29.9101 19.6482 29.7303 19.8307L25.9451 23.6729L29.7303 27.5151C29.8876 27.6748 29.9719 27.8709 29.9831 28.1036C29.9944 28.3363 29.9101 28.5438 29.7303 28.7263C29.5506 28.9088 29.3517 29 29.1337 29C28.9158 29 28.7169 28.9088 28.5371 28.7263L24.7519 24.8841ZM2.84266 19.3962C2.60447 19.3962 2.40448 19.3141 2.24269 19.1499C2.0809 18.9856 2 18.7826 2 18.5409C2 18.2991 2.0809 18.0961 2.24269 17.9318C2.40448 17.7688 2.60447 17.6872 2.84266 17.6872H12.9546C13.1939 17.6872 13.3939 17.7693 13.5546 17.9336C13.7164 18.0978 13.7973 18.3014 13.7973 18.5443C13.7973 18.7872 13.7164 18.9902 13.5546 19.1533C13.3939 19.3164 13.1939 19.3979 12.9546 19.3979L2.84266 19.3962ZM2.84266 12.5534C2.60447 12.5534 2.40448 12.4713 2.24269 12.3071C2.0809 12.1429 2 11.9399 2 11.6981C2 11.4563 2.0809 11.2533 2.24269 11.0891C2.40448 10.926 2.60447 10.8445 2.84266 10.8445H19.6959C19.9352 10.8445 20.1352 10.9266 20.2959 11.0908C20.4577 11.255 20.5386 11.4586 20.5386 11.7015C20.5386 11.9444 20.4577 12.1474 20.2959 12.3105C20.1352 12.4736 19.9352 12.5552 19.6959 12.5552L2.84266 12.5534ZM2.84266 5.71069C2.60447 5.71069 2.40448 5.62858 2.24269 5.46435C2.0809 5.30012 2 5.09655 2 4.85363C2 4.61072 2.0809 4.40771 2.24269 4.24463C2.40448 4.08154 2.60447 4 2.84266 4H19.6959C19.9352 4 20.1352 4.08211 20.2959 4.24634C20.4577 4.41057 20.5386 4.61414 20.5386 4.85705C20.5386 5.09997 20.4577 5.30297 20.2959 5.46606C20.1352 5.62915 19.9352 5.71069 19.6959 5.71069H2.84266Z" fill="white"/>
</svg>
