<svg width="32" height="32" viewBox="0 0 32 32" fill="none" xmlns="http://www.w3.org/2000/svg">
<path d="M14.7724 28L13.1319 26.495C10.9748 24.4854 9.17763 22.7555 7.7405 21.3054C6.30431 19.8552 5.16283 18.5654 4.31607 17.4359C3.4693 16.3065 2.87136 15.2733 2.52225 14.3363C2.17408 13.3994 2 12.4515 2 11.4924C2 9.65518 2.61308 8.11404 3.83923 6.869C5.06538 5.62396 6.58104 5.00144 8.38621 5.00144C9.63507 5.00144 10.8059 5.32643 11.8986 5.97639C12.9914 6.62635 13.9493 7.57144 14.7724 8.81167C15.5955 7.57144 16.5535 6.62635 17.6462 5.97639C18.739 5.32643 19.9098 5.00096 21.1586 5C22.8361 5 24.3272 5.59893 25.6318 6.79678C26.9365 7.99464 27.5889 9.54974 27.5889 11.4621C27.5889 11.8925 27.5425 12.3402 27.4498 12.8053C27.3571 13.2704 27.2175 13.7422 27.0311 14.2208H25.4899C25.699 13.6951 25.8527 13.1982 25.9511 12.7302C26.0495 12.2613 26.0987 11.8212 26.0987 11.4101C26.0987 9.71536 25.5344 8.46406 24.4057 7.65618C23.2779 6.84734 22.1956 6.44292 21.1586 6.44292C20.0072 6.44292 18.9618 6.77416 18.0223 7.43664C17.0838 8.09912 16.1906 9.1015 15.3429 10.4438H14.2019C13.341 9.08321 12.4389 8.07649 11.4956 7.42364C10.5523 6.77079 9.51586 6.44436 8.38621 6.44436C7.00206 6.44436 5.82794 6.92437 4.86386 7.88439C3.90073 8.84537 3.41916 10.048 3.41916 11.4924C3.41916 12.3051 3.58473 13.1298 3.91586 13.9666C4.247 14.8043 4.83832 15.7677 5.68981 16.8568C6.54131 17.9458 7.70029 19.2255 9.16675 20.6959C10.6332 22.1653 12.5018 23.9481 14.7724 26.0443C15.4962 25.3799 16.2086 24.7237 16.9097 24.0757C17.6098 23.4267 18.2356 22.834 18.7872 22.2977L18.9433 22.4565L19.2939 22.8133L19.6444 23.1701L19.8005 23.3289C19.2423 23.8653 18.6207 24.4469 17.9357 25.0737C17.2498 25.6996 16.5539 26.3452 15.8482 27.0106L14.7724 28ZM20.0659 19.1114V17.667H30V19.1114H20.0659Z" fill="white"/>
</svg>
