<svg width="32" height="32" viewBox="0 0 32 32" fill="none" xmlns="http://www.w3.org/2000/svg">
<path d="M14.348 20.6356L20.3167 16.7933C20.6195 16.6036 20.7709 16.3401 20.7709 16.0031C20.7709 15.6661 20.6195 15.4006 20.3167 15.2067L14.348 11.3644C14.039 11.1446 13.7185 11.1254 13.3867 11.3069C13.0548 11.4884 12.8889 11.7715 12.8889 12.1562V19.8438C12.8889 20.2285 13.0548 20.5116 13.3867 20.6931C13.7185 20.8746 14.039 20.8559 14.348 20.6371M16.0047 30C14.0696 30 12.2496 29.6329 10.5447 28.8987C8.84081 28.1634 7.35837 27.1658 6.09733 25.9058C4.8363 24.6468 3.83815 23.1659 3.10289 21.4631C2.36763 19.7603 2 17.9408 2 16.0047C2 14.0696 2.36711 12.2496 3.10133 10.5447C3.83659 8.84082 4.83422 7.35837 6.09422 6.09733C7.35319 4.8363 8.83407 3.83815 10.5369 3.10289C12.2397 2.36763 14.0592 2 15.9953 2C17.9304 2 19.7504 2.36711 21.4553 3.10133C23.1592 3.83659 24.6416 4.83422 25.9027 6.09422C27.1637 7.35319 28.1619 8.83407 28.8971 10.5369C29.6324 12.2397 30 14.0592 30 15.9953C30 17.9304 29.6329 19.7504 28.8987 21.4553C28.1634 23.1592 27.1658 24.6416 25.9058 25.9027C24.6468 27.1637 23.1659 28.1619 21.4631 28.8971C19.7603 29.6324 17.9408 30 16.0047 30Z" fill="white"/>
</svg>
