<svg width="32" height="32" viewBox="0 0 32 32" fill="none" xmlns="http://www.w3.org/2000/svg">
<path d="M13.368 21.4444C13.5889 21.4444 13.7735 21.3698 13.9218 21.2204C14.0711 21.0711 14.1458 20.8865 14.1458 20.6667V11.3333C14.1458 11.1124 14.0711 10.9279 13.9218 10.7796C13.7724 10.6313 13.5873 10.5566 13.3664 10.5556C13.1456 10.5556 12.961 10.6302 12.8127 10.7796C12.6644 10.9289 12.5902 11.1135 12.5902 11.3333V20.6667C12.5902 20.8876 12.6649 21.0721 12.8142 21.2204C12.9636 21.3687 13.1481 21.4434 13.368 21.4444ZM18.6336 21.4444C18.8544 21.4444 19.039 21.3698 19.1873 21.2204C19.3356 21.0711 19.4098 20.8865 19.4098 20.6667V11.3333C19.4098 11.1124 19.3351 10.9279 19.1858 10.7796C19.0364 10.6313 18.8519 10.5566 18.632 10.5556C18.4111 10.5556 18.2265 10.6302 18.0782 10.7796C17.9289 10.9289 17.8542 11.1135 17.8542 11.3333V20.6667C17.8542 20.8876 17.9289 21.0721 18.0782 21.2204C18.2276 21.3687 18.4127 21.4434 18.6336 21.4444ZM16.0047 30C14.0696 30 12.2496 29.6329 10.5447 28.8987C8.84081 28.1634 7.35837 27.1658 6.09733 25.9058C4.8363 24.6468 3.83815 23.1659 3.10289 21.4631C2.36763 19.7603 2 17.9408 2 16.0047C2 14.0696 2.36711 12.2496 3.10133 10.5447C3.83659 8.84081 4.83422 7.35837 6.09422 6.09733C7.35319 4.8363 8.83407 3.83815 10.5369 3.10289C12.2397 2.36763 14.0592 2 15.9953 2C17.9304 2 19.7504 2.36711 21.4553 3.10133C23.1592 3.83659 24.6416 4.83422 25.9027 6.09422C27.1637 7.35319 28.1619 8.83407 28.8971 10.5369C29.6324 12.2397 30 14.0592 30 15.9953C30 17.9304 29.6329 19.7504 28.8987 21.4553C28.1634 23.1592 27.1658 24.6416 25.9058 25.9027C24.6468 27.1637 23.1659 28.1619 21.4631 28.8971C19.7603 29.6324 17.9408 30 16.0047 30Z" fill="white"/>
</svg>
