<svg width="22" height="22" viewBox="0 0 22 22" fill="none" xmlns="http://www.w3.org/2000/svg">
<path d="M13.1665 13.1667C13.4734 13.1667 13.7309 13.0627 13.9389 12.8547C14.1469 12.6467 14.2506 12.3896 14.2498 12.0834V9.91669H16.4165C16.7234 9.91669 16.9809 9.81269 17.1889 9.60469C17.3969 9.39669 17.5006 9.13958 17.4998 8.83335C17.4998 8.52641 17.3958 8.2693 17.1878 8.06202C16.9798 7.85474 16.7227 7.75074 16.4165 7.75002H14.2498V5.58335C14.2498 5.27641 14.1458 5.0193 13.9378 4.81202C13.7298 4.60474 13.4727 4.50074 13.1665 4.50002C12.8596 4.50002 12.6024 4.60402 12.3952 4.81202C12.1879 5.02002 12.0839 5.27713 12.0832 5.58335V7.75002H9.9165C9.60956 7.75002 9.35245 7.85402 9.14517 8.06202C8.93789 8.27002 8.83389 8.52713 8.83317 8.83335C8.83317 9.1403 8.93717 9.39777 9.14517 9.60577C9.35317 9.81377 9.61028 9.91741 9.9165 9.91669H12.0832V12.0834C12.0832 12.3903 12.1872 12.6478 12.3952 12.8558C12.6032 13.0638 12.8603 13.1674 13.1665 13.1667ZM6.6665 17.5C6.07067 17.5 5.56078 17.288 5.13684 16.8641C4.71289 16.4402 4.50056 15.9299 4.49984 15.3334V2.33335C4.49984 1.73752 4.71217 1.22763 5.13684 0.803687C5.5615 0.379743 6.07139 0.167409 6.6665 0.166687H19.6665C20.2623 0.166687 20.7726 0.37902 21.1973 0.803687C21.6219 1.22835 21.8339 1.73824 21.8332 2.33335V15.3334C21.8332 15.9292 21.6212 16.4394 21.1973 16.8641C20.7733 17.2888 20.2631 17.5007 19.6665 17.5H6.6665ZM6.6665 15.3334H19.6665V2.33335H6.6665V15.3334ZM2.33317 21.8334C1.73734 21.8334 1.22745 21.6214 0.803504 21.1974C0.37956 20.7735 0.167226 20.2632 0.166504 19.6667V5.58335C0.166504 5.27641 0.270504 5.0193 0.478504 4.81202C0.686504 4.60474 0.943615 4.50074 1.24984 4.50002C1.55678 4.50002 1.81425 4.60402 2.02225 4.81202C2.23025 5.02002 2.33389 5.27713 2.33317 5.58335V19.6667H16.4165C16.7234 19.6667 16.9809 19.7707 17.1889 19.9787C17.3969 20.1867 17.5006 20.4438 17.4998 20.75C17.4998 21.057 17.3958 21.3144 17.1878 21.5224C16.9798 21.7304 16.7227 21.8341 16.4165 21.8334H2.33317Z" fill="white"/>
</svg>
