<svg width="32" height="32" viewBox="0 0 32 32" fill="none" xmlns="http://www.w3.org/2000/svg">
<path d="M15.0608 19.623L9.28074 14.3666C9.20157 14.2933 9.13464 14.2089 9.07994 14.1133C9.02524 14.0178 8.99862 13.915 9.00006 13.805C9.00006 13.5851 9.07922 13.396 9.23756 13.2376C9.39878 13.0792 9.61037 13 9.87235 13H22.1277C22.3897 13 22.6006 13.0812 22.7603 13.2435C22.9201 13.4058 23 13.595 23 13.8109C23 13.8633 22.9064 14.0485 22.7193 14.3666L16.9393 19.623C16.8054 19.7434 16.6614 19.8364 16.5074 19.9018C16.3534 19.9673 16.1843 20 16 20C15.8158 20 15.6466 19.9673 15.4926 19.9018C15.3386 19.8364 15.1947 19.7434 15.0608 19.623Z" fill="white"/>
</svg>
