<svg width="32" height="32" viewBox="0 0 32 32" fill="none" xmlns="http://www.w3.org/2000/svg">
<path d="M15.9993 24.7174C15.6322 24.7174 15.3185 24.5872 15.058 24.3267C14.7976 24.0663 14.6669 23.7521 14.666 23.3841C14.666 23.0178 14.7967 22.7041 15.058 22.4427C15.3193 22.1814 15.6331 22.0507 15.9993 22.0507C16.3665 22.0507 16.6802 22.1814 16.9407 22.4427C17.2011 22.7041 17.3318 23.0178 17.3327 23.3841C17.3327 23.7512 17.202 24.0654 16.9407 24.3267C16.6793 24.5881 16.3656 24.7183 15.9993 24.7174ZM15.9993 17.3334C15.6322 17.3334 15.3185 17.2027 15.058 16.9414C14.7976 16.6801 14.6669 16.3663 14.666 16.0001C14.666 15.6329 14.7967 15.3192 15.058 15.0587C15.3193 14.7983 15.6331 14.6676 15.9993 14.6667C16.3665 14.6667 16.6802 14.7974 16.9407 15.0587C17.2011 15.3201 17.3318 15.6338 17.3327 16.0001C17.3327 16.3672 17.202 16.6809 16.9407 16.9414C16.6793 17.2018 16.3656 17.3325 15.9993 17.3334ZM15.9993 9.94939C15.6322 9.94939 15.3185 9.81872 15.058 9.55739C14.7976 9.29605 14.6669 8.98227 14.666 8.61605C14.666 8.24894 14.7967 7.93472 15.058 7.67339C15.3193 7.41205 15.6331 7.28183 15.9993 7.28272C16.3665 7.28272 16.6802 7.41294 16.9407 7.67339C17.2011 7.93383 17.3318 8.24805 17.3327 8.61605C17.3327 8.98227 17.202 9.29605 16.9407 9.55739C16.6793 9.81872 16.3656 9.94939 15.9993 9.94939Z" fill="white"/>
</svg>
