<svg width="32" height="32" viewBox="0 0 32 32" fill="none" xmlns="http://www.w3.org/2000/svg">
<path d="M15.9689 28.024C15.6661 28.024 15.3669 27.969 15.0713 27.8591C14.7758 27.7492 14.515 27.5817 14.2889 27.3567L12.5031 25.7467C9.73422 23.2319 7.292 20.786 5.17644 18.4091C3.05881 16.0333 2 13.5636 2 11C2 9.02133 2.672 7.36 4.016 6.016C5.36 4.672 7.02133 4 9 4C10.1345 4 11.3162 4.28674 12.5451 4.86022C13.773 5.4337 14.9246 6.51481 16 8.10356C17.0754 6.51481 18.227 5.4337 19.4549 4.86022C20.6838 4.28674 21.8655 4 23 4C24.9787 4 26.64 4.672 27.984 6.016C29.328 7.36 30 9.02133 30 11C30 13.6227 28.8981 16.1437 26.6944 18.5631C24.4907 20.9815 22.0786 23.3786 19.458 25.7544L17.6816 27.3567C17.4555 27.5827 17.1895 27.7502 16.8836 27.8591C16.5776 27.968 16.2733 28.023 15.9704 28.024M15.2393 9.71978C14.3081 8.21815 13.34 7.14844 12.3351 6.51067C11.3302 5.87393 10.2185 5.55556 9 5.55556C7.44444 5.55556 6.14815 6.07407 5.11111 7.11111C4.07407 8.14815 3.55556 9.44444 3.55556 11C3.55556 12.149 3.88067 13.3271 4.53089 14.5342C5.18111 15.7424 6.0543 16.9796 7.15044 18.2458C8.24556 19.511 9.50452 20.8062 10.9273 22.1316C12.3512 23.4559 13.8326 24.819 15.3716 26.2211C15.551 26.3798 15.7604 26.4591 16 26.4591C16.2396 26.4591 16.449 26.3798 16.6284 26.2211C18.1674 24.819 19.6488 23.4553 21.0727 22.13C22.4955 20.8067 23.7544 19.512 24.8496 18.2458C25.9457 16.9796 26.8189 15.7424 27.4691 14.5342C28.1193 13.3271 28.4444 12.149 28.4444 11C28.4444 9.44444 27.9259 8.14815 26.8889 7.11111C25.8519 6.07407 24.5556 5.55556 23 5.55556C21.7815 5.55556 20.6698 5.87393 19.6649 6.51067C18.659 7.14844 17.6904 8.21815 16.7591 9.71978C16.6782 9.85978 16.5678 9.96452 16.4278 10.034C16.2878 10.1035 16.1452 10.1382 16 10.1382C15.8548 10.1382 15.7122 10.1035 15.5722 10.034C15.4322 9.96452 15.3218 9.85978 15.2409 9.71978" fill="white"/>
</svg>
